<?xml version="1.0" encoding="UTF-8"?><svg id="a" xmlns="http://www.w3.org/2000/svg" viewBox="0 0 32 26"><g id="b"><g id="c"><path id="d" d="M8.76,7.99l4.88-5.11c.61-.64,1.44-1,2.32-1.02.88-.01,1.72.32,2.35.94l5.29,5.19,2.84-2.26c.84-.67,2.01-.72,2.91-.13.9.59,1.31,1.69,1.03,2.72l-3.71,13.65c-.33,1.22-1.44,2.07-2.7,2.07H7.91c-1.26,0-2.37-.85-2.7-2.07L1.56,8.52c-.29-1.08.13-2.24,1.06-2.87.93-.63,2.16-.61,3.06.06l3.08,2.28h0Z" style="fill:#a3f1f2; stroke:#fff; stroke-width:2px;"/><path id="e" d="M7.16,10l1.1.94c.18.16.42.23.66.21.24-.02.46-.13.62-.32l2.72-3.21c.3-.35.78-.49,1.22-.35.44.14.75.54.79,1l.94,11.79c.03.32-.08.63-.3.86-.22.23-.52.37-.84.37h-4.48c-.52,0-.97-.35-1.1-.85l-2.51-9.69c-.08-.31.05-.64.33-.81.27-.17.63-.14.87.07h0Z" style="fill:#9deded;"/></g></g></svg>